<svg xmlns="http://www.w3.org/2000/svg" version="1.1" xmlns:xlink="http://www.w3.org/1999/xlink" xmlns:svgjs="http://svgjs.dev/svgjs" width="1000" height="1000" viewBox="0 0 1000 1000"><rect width="1000" height="1000" fill="#000000"></rect><g transform="matrix(0.7,0,0,0.7,149.57575757575756,282.1265587044535)"><svg viewBox="0 0 396 247" data-background-color="#00ffef" preserveAspectRatio="xMidYMid meet" height="623" width="1000" xmlns="http://www.w3.org/2000/svg" xmlns:xlink="http://www.w3.org/1999/xlink"><g id="tight-bounds" transform="matrix(1,0,0,1,0.2400000000000091,-0.09999999999999432)"><svg viewBox="0 0 395.52 247.2" height="247.2" width="395.52"><g><svg></svg></g><g><svg viewBox="0 0 395.52 247.2" height="247.2" width="395.52"><mask id="34516746-821d-4e7e-9b97-11b16245e876"><rect width="395.52" height="247.2" fill="white"></rect><g transform="matrix(1,0,0,1,0,70.7341304347826)" id="clone"><svg viewBox="0 0 395.52 105.73173913043479" height="105.73173913043479" width="395.52"><g><svg viewBox="0 0 395.52 105.73173913043479" height="105.73173913043479" width="395.52"><g><svg viewBox="0 0 395.52 105.73173913043479" height="105.73173913043479" width="395.52"><g><svg viewBox="0 0 395.52 105.73173913043479" height="105.73173913043479" width="395.52"><g id="SvgjsG1114"><svg viewBox="0 0 395.52 105.73173913043479" height="105.73173913043479" width="395.52" id="SvgjsSvg1113"><g><svg viewBox="0 0 395.52 105.73173913043479" height="105.73173913043479" width="395.52"><g transform="matrix(1,0,0,1,0,0)"><svg width="395.52" viewBox="-1.149999976158142 -36.5 148.1899871826172 40.349998474121094" height="105.73173913043479" data-palette-color="#010c80"><path d="M23.75-16.9L23.75-17.4 30.9-17.4 30.9-16.9 30.65-16.9Q30.25-16.9 29.95-16.63 29.65-16.35 29.45-15.95 29.25-15.55 29.13-15.1 29-14.65 29-14.3L29-14.3 29-0.9Q28.1-0.55 26.95-0.3 25.8-0.05 24.55 0.13 23.3 0.3 22 0.4 20.7 0.5 19.6 0.5L19.6 0.5Q15.1 0.5 11.75-1 8.4-2.5 6.2-4.93 4-7.35 2.93-10.4 1.85-13.45 1.85-16.55L1.85-16.55Q1.85-19.65 2.93-22.7 4-25.75 6.23-28.15 8.45-30.55 11.83-32.02 15.2-33.5 19.85-33.5L19.85-33.5Q21.6-33.5 23.1-33.2 24.6-32.9 25.75-32.65L25.75-32.65Q26.4-32.5 26.88-32.38 27.35-32.25 27.7-32.25L27.7-32.25 28.15-32.25 28.15-26.95 27.65-26.95Q27.35-28.5 26.48-29.45 25.6-30.4 24.45-30.9 23.3-31.4 22.03-31.58 20.75-31.75 19.65-31.75L19.65-31.75Q15.9-31.75 13.15-30.43 10.4-29.1 8.65-27 6.9-24.9 6.05-22.28 5.2-19.65 5.2-17.05L5.2-17.05Q5.2-14.15 6.3-11.33 7.4-8.5 9.4-6.28 11.4-4.05 14.23-2.68 17.05-1.3 20.5-1.3L20.5-1.3Q21.45-1.3 22.85-1.53 24.25-1.75 25.65-2.55L25.65-2.55 25.65-14.3Q25.65-14.65 25.55-15.1 25.45-15.55 25.23-15.95 25-16.35 24.7-16.63 24.4-16.9 24-16.9L24-16.9 23.75-16.9ZM53.15 0L48.3 0 48.3-2.55 48.05-2.3Q46.8-1.05 45.17-0.35 43.55 0.35 41.25 0.35L41.25 0.35Q39.5 0.35 38.25-0.05 37-0.45 36.2-1.18 35.4-1.9 35.02-2.85 34.65-3.8 34.65-4.85L34.65-4.85Q34.65-6.55 35.57-7.85 36.5-9.15 38.25-10.15 40-11.15 42.52-11.98 45.05-12.8 48.3-13.6L48.3-13.6Q48.2-15.55 47.5-16.75 46.8-17.95 45.85-18.63 44.9-19.3 43.85-19.53 42.8-19.75 42.05-19.75L42.05-19.75Q40.75-19.75 39.77-19.35 38.8-18.95 38.07-18.32 37.35-17.7 36.85-16.98 36.35-16.25 36.05-15.6L36.05-15.6 35.6-15.6 35.6-19.25Q36-19.3 36.35-19.5 36.7-19.7 37.2-19.9L37.2-19.9Q37.95-20.2 39.25-20.78 40.55-21.35 42.9-21.35L42.9-21.35Q45.65-21.35 47.35-20.65 49.05-19.95 49.97-18.8 50.9-17.65 51.2-16.18 51.5-14.7 51.5-13.15L51.5-13.15 51.5-3.25Q51.5-2.25 51.95-1.38 52.4-0.5 53.15-0.5L53.15-0.5 53.15 0ZM47.75-4.15L48.3-4.75 48.3-11.9 47.8-11.8Q46.6-11.5 44.87-11 43.15-10.5 41.6-9.7 40.05-8.9 38.95-7.8 37.85-6.7 37.85-5.25L37.85-5.25Q37.85-3.65 39.15-2.6 40.45-1.55 42.55-1.55L42.55-1.55Q44.2-1.55 45.45-2.27 46.7-3 47.75-4.15L47.75-4.15ZM77.75-21.55L77.75-3.25Q77.75-2.9 77.85-2.43 77.95-1.95 78.12-1.53 78.3-1.1 78.6-0.8 78.9-0.5 79.3-0.5L79.3-0.5 79.3 0 74.45 0 74.45-2.75Q73.7-1.65 72.25-0.6 70.8 0.45 68.5 0.45L68.5 0.45Q65.6 0.45 63.9-0.55 62.2-1.55 61.3-3.1 60.4-4.65 60.15-6.48 59.9-8.3 59.9-9.9L59.9-9.9 59.9-17.05Q59.9-17.5 59.87-17.93 59.85-18.35 59.67-18.7 59.5-19.05 59.15-19.28 58.8-19.5 58.15-19.5L58.15-19.5 58.15-19.95 63.2-21.55 63.2-8.8Q63.2-5 64.85-3.2 66.5-1.4 68.9-1.4L68.9-1.4Q70.2-1.4 71.22-1.98 72.25-2.55 72.97-3.35 73.7-4.15 74.07-5 74.45-5.85 74.45-6.4L74.45-6.4 74.45-17.05Q74.45-17.5 74.42-17.93 74.4-18.35 74.22-18.7 74.05-19.05 73.7-19.28 73.35-19.5 72.7-19.5L72.7-19.5 72.7-19.95 77.75-21.55ZM97.84-20.4L96.34-17.35Q95.74-18.35 95.09-18.6 94.44-18.85 93.59-18.85L93.59-18.85Q93.04-18.85 92.42-18.6 91.79-18.35 91.19-17.95 90.59-17.55 90.02-17.07 89.44-16.6 89.04-16.2L89.04-16.2 89.04-3.2Q89.04-2.8 89.14-2.35 89.24-1.9 89.47-1.48 89.69-1.05 89.97-0.78 90.24-0.5 90.64-0.5L90.64-0.5 90.64 0 84.14 0 84.14-0.5Q84.49-0.5 84.79-0.78 85.09-1.05 85.32-1.48 85.54-1.9 85.64-2.35 85.74-2.8 85.74-3.2L85.74-3.2 85.74-17.15Q85.74-17.85 85.29-18.55 84.84-19.25 83.99-19.45L83.99-19.45 83.99-19.85 89.04-21.35 89.04-18.35Q89.49-18.9 89.99-19.43 90.49-19.95 91.12-20.38 91.74-20.8 92.49-21.08 93.24-21.35 94.24-21.35L94.24-21.35Q94.94-21.35 96.04-21.05 97.14-20.75 97.84-20.4L97.84-20.4ZM119.04 0L114.19 0 114.19-2.55 113.94-2.3Q112.69-1.05 111.07-0.35 109.44 0.35 107.14 0.35L107.14 0.35Q105.39 0.35 104.14-0.05 102.89-0.45 102.09-1.18 101.29-1.9 100.92-2.85 100.54-3.8 100.54-4.85L100.54-4.85Q100.54-6.55 101.47-7.85 102.39-9.15 104.14-10.15 105.89-11.15 108.42-11.98 110.94-12.8 114.19-13.6L114.19-13.6Q114.09-15.55 113.39-16.75 112.69-17.95 111.74-18.63 110.79-19.3 109.74-19.53 108.69-19.75 107.94-19.75L107.94-19.75Q106.64-19.75 105.67-19.35 104.69-18.95 103.97-18.32 103.24-17.7 102.74-16.98 102.24-16.25 101.94-15.6L101.94-15.6 101.49-15.6 101.49-19.25Q101.89-19.3 102.24-19.5 102.59-19.7 103.09-19.9L103.09-19.9Q103.84-20.2 105.14-20.78 106.44-21.35 108.79-21.35L108.79-21.35Q111.54-21.35 113.24-20.65 114.94-19.95 115.87-18.8 116.79-17.65 117.09-16.18 117.39-14.7 117.39-13.15L117.39-13.15 117.39-3.25Q117.39-2.25 117.84-1.38 118.29-0.5 119.04-0.5L119.04-0.5 119.04 0ZM113.64-4.15L114.19-4.75 114.19-11.9 113.69-11.8Q112.49-11.5 110.77-11 109.04-10.5 107.49-9.7 105.94-8.9 104.84-7.8 103.74-6.7 103.74-5.25L103.74-5.25Q103.74-3.65 105.04-2.6 106.34-1.55 108.44-1.55L108.44-1.55Q110.09-1.55 111.34-2.27 112.59-3 113.64-4.15L113.64-4.15ZM139.14-21L144.04-21 144.04-20.5Q143.69-20.5 143.34-20.25 142.99-20 142.66-19.6 142.34-19.2 142.06-18.73 141.79-18.25 141.59-17.85L141.59-17.85 132.99 0.85 124.44-18.05Q124.09-18.85 123.54-19.68 122.99-20.5 122.14-20.5L122.14-20.5 122.14-21 128.99-21 128.99-20.5Q128.69-20.5 128.21-20.2 127.74-19.9 127.74-19.35L127.74-19.35Q127.74-19.1 128.14-18.2L128.14-18.2 133.89-5.25 140.09-18.75Q140.29-19.25 140.29-19.5L140.29-19.5Q140.29-19.95 139.86-20.23 139.44-20.5 139.14-20.5L139.14-20.5 139.14-21Z" opacity="1" transform="matrix(1,0,0,1,0,0)" fill="black" class="wordmark-text-0" id="SvgjsPath1112" stroke-width="5" stroke="black" stroke-linejoin="round"></path></svg></g></svg></g></svg></g></svg></g><g></g></svg></g></svg></g></svg></g></mask><g mask="url(#34516746-821d-4e7e-9b97-11b16245e876)"><g><path xmlns="http://www.w3.org/2000/svg" d="M251.381 120.692v-3.636h51.984v3.636h-1.817c-1.939 0-3.635 0.654-5.09 1.963-1.454 1.357-2.666 3.005-3.635 4.944-0.969 1.939-1.745 3.999-2.327 6.18-0.63 2.181-0.945 4.12-0.945 5.816v0 97.426c-4.362 1.696-9.331 3.151-14.905 4.363-5.574 1.212-11.391 2.254-17.449 3.126-6.059 0.824-12.239 1.478-18.54 1.963-6.301 0.485-12.118 0.727-17.449 0.727v0c-21.812 0-40.836-3.635-57.074-10.906-16.238-7.271-29.688-16.795-40.352-28.573-10.664-11.73-18.588-24.987-23.775-39.77-5.235-14.784-7.852-29.688-7.852-44.715v0c0-15.026 2.617-29.931 7.852-44.714 5.186-14.784 13.184-27.992 23.993-39.624 10.76-11.633 24.332-21.012 40.715-28.138 16.335-7.174 35.771-10.76 58.31-10.76v0c8.482 0 16.359 0.727 23.63 2.181 7.271 1.454 13.693 2.787 19.267 3.999v0c3.151 0.727 5.889 1.381 8.216 1.963 2.278 0.63 4.265 0.945 5.961 0.945v0h3.272v38.534h-3.635c-1.454-7.513-4.29-13.572-8.507-18.176-4.265-4.605-9.185-8.119-14.759-10.542-5.574-2.424-11.439-4.072-17.595-4.944-6.204-0.824-11.972-1.236-17.304-1.236v0c-18.176 0-33.929 3.199-47.259 9.597-13.329 6.447-24.235 14.759-32.717 24.938-8.482 10.179-14.784 21.618-18.904 34.317-4.12 12.748-6.18 25.423-6.18 38.025v0c0 14.056 2.666 27.919 7.998 41.588 5.332 13.717 12.845 25.956 22.539 36.716 9.694 10.809 21.4 19.534 35.117 26.175 13.669 6.689 28.864 10.033 45.586 10.033v0c4.605 0 10.3-0.557 17.086-1.672 6.786-1.066 13.572-3.538 20.358-7.416v0-85.43c0-1.696-0.242-3.635-0.727-5.816-0.485-2.181-1.26-4.241-2.327-6.18-1.115-1.939-2.399-3.587-3.853-4.944-1.454-1.309-3.151-1.963-5.09-1.963v0z" fill="#ffffff" fill-rule="nonzero" stroke="none" stroke-width="1" stroke-linecap="butt" stroke-linejoin="miter" stroke-miterlimit="10" stroke-dasharray="" stroke-dashoffset="0" font-family="none" font-weight="none" font-size="none" text-anchor="none" style="mix-blend-mode: normal" data-fill-palette-color="tertiary"></path></g></g><g transform="matrix(1,0,0,1,0,70.7341304347826)"><svg viewBox="0 0 395.52 105.73173913043479" height="105.73173913043479" width="395.52"><g><svg viewBox="0 0 395.52 105.73173913043479" height="105.73173913043479" width="395.52"><g><svg viewBox="0 0 395.52 105.73173913043479" height="105.73173913043479" width="395.52"><g><svg viewBox="0 0 395.52 105.73173913043479" height="105.73173913043479" width="395.52"><g id="textblocktransform"><svg viewBox="0 0 395.52 105.73173913043479" height="105.73173913043479" width="395.52" id="textblock"><g><svg viewBox="0 0 395.52 105.73173913043479" height="105.73173913043479" width="395.52"><g transform="matrix(1,0,0,1,0,0)"><svg width="395.52" viewBox="-1.149999976158142 -36.5 148.1899871826172 40.349998474121094" height="105.73173913043479" data-palette-color="#010c80"><path d="M23.75-16.9L23.75-17.4 30.9-17.4 30.9-16.9 30.65-16.9Q30.25-16.9 29.95-16.63 29.65-16.35 29.45-15.95 29.25-15.55 29.13-15.1 29-14.65 29-14.3L29-14.3 29-0.9Q28.1-0.55 26.95-0.3 25.8-0.05 24.55 0.13 23.3 0.3 22 0.4 20.7 0.5 19.6 0.5L19.6 0.5Q15.1 0.5 11.75-1 8.4-2.5 6.2-4.93 4-7.35 2.93-10.4 1.85-13.45 1.85-16.55L1.85-16.55Q1.85-19.65 2.93-22.7 4-25.75 6.23-28.15 8.45-30.55 11.83-32.02 15.2-33.5 19.85-33.5L19.85-33.5Q21.6-33.5 23.1-33.2 24.6-32.9 25.75-32.65L25.75-32.65Q26.4-32.5 26.88-32.38 27.35-32.25 27.7-32.25L27.7-32.25 28.15-32.25 28.15-26.95 27.65-26.95Q27.35-28.5 26.48-29.45 25.6-30.4 24.45-30.9 23.3-31.4 22.03-31.58 20.75-31.75 19.65-31.75L19.65-31.75Q15.9-31.75 13.15-30.43 10.4-29.1 8.65-27 6.9-24.9 6.05-22.28 5.2-19.65 5.2-17.05L5.2-17.05Q5.2-14.15 6.3-11.33 7.4-8.5 9.4-6.28 11.4-4.05 14.23-2.68 17.05-1.3 20.5-1.3L20.5-1.3Q21.45-1.3 22.85-1.53 24.25-1.75 25.65-2.55L25.65-2.55 25.65-14.3Q25.65-14.65 25.55-15.1 25.45-15.55 25.23-15.95 25-16.35 24.7-16.63 24.4-16.9 24-16.9L24-16.9 23.75-16.9ZM53.15 0L48.3 0 48.3-2.55 48.05-2.3Q46.8-1.05 45.17-0.35 43.55 0.35 41.25 0.35L41.25 0.35Q39.5 0.35 38.25-0.05 37-0.45 36.2-1.18 35.4-1.9 35.02-2.85 34.65-3.8 34.65-4.85L34.65-4.85Q34.65-6.55 35.57-7.85 36.5-9.15 38.25-10.15 40-11.15 42.52-11.98 45.05-12.8 48.3-13.6L48.3-13.6Q48.2-15.55 47.5-16.75 46.8-17.95 45.85-18.63 44.9-19.3 43.85-19.53 42.8-19.75 42.05-19.75L42.05-19.75Q40.75-19.75 39.77-19.35 38.8-18.95 38.07-18.32 37.35-17.7 36.85-16.98 36.35-16.25 36.05-15.6L36.05-15.6 35.6-15.6 35.6-19.25Q36-19.3 36.35-19.5 36.7-19.7 37.2-19.9L37.2-19.9Q37.95-20.2 39.25-20.78 40.55-21.35 42.9-21.35L42.9-21.35Q45.65-21.35 47.35-20.65 49.05-19.95 49.97-18.8 50.9-17.65 51.2-16.18 51.5-14.7 51.5-13.15L51.5-13.15 51.5-3.25Q51.5-2.25 51.95-1.38 52.4-0.5 53.15-0.5L53.15-0.5 53.15 0ZM47.75-4.15L48.3-4.75 48.3-11.9 47.8-11.8Q46.6-11.5 44.87-11 43.15-10.5 41.6-9.7 40.05-8.9 38.95-7.8 37.85-6.7 37.85-5.25L37.85-5.25Q37.85-3.65 39.15-2.6 40.45-1.55 42.55-1.55L42.55-1.55Q44.2-1.55 45.45-2.27 46.7-3 47.75-4.15L47.75-4.15ZM77.75-21.55L77.75-3.25Q77.75-2.9 77.85-2.43 77.95-1.95 78.12-1.53 78.3-1.1 78.6-0.8 78.9-0.5 79.3-0.5L79.3-0.5 79.3 0 74.45 0 74.45-2.75Q73.7-1.65 72.25-0.6 70.8 0.45 68.5 0.45L68.5 0.45Q65.6 0.45 63.9-0.55 62.2-1.55 61.3-3.1 60.4-4.65 60.15-6.48 59.9-8.3 59.9-9.9L59.9-9.9 59.9-17.05Q59.9-17.5 59.87-17.93 59.85-18.35 59.67-18.7 59.5-19.05 59.15-19.28 58.8-19.5 58.15-19.5L58.15-19.5 58.15-19.95 63.2-21.55 63.2-8.8Q63.2-5 64.85-3.2 66.5-1.4 68.9-1.4L68.9-1.4Q70.2-1.4 71.22-1.98 72.25-2.55 72.97-3.35 73.7-4.15 74.07-5 74.45-5.85 74.45-6.4L74.45-6.4 74.45-17.05Q74.45-17.5 74.42-17.93 74.4-18.35 74.22-18.7 74.05-19.05 73.7-19.28 73.35-19.5 72.7-19.5L72.7-19.5 72.7-19.95 77.75-21.55ZM97.84-20.4L96.34-17.35Q95.74-18.35 95.09-18.6 94.44-18.85 93.59-18.85L93.59-18.85Q93.04-18.85 92.42-18.6 91.79-18.35 91.19-17.95 90.59-17.55 90.02-17.07 89.44-16.6 89.04-16.2L89.04-16.2 89.04-3.2Q89.04-2.8 89.14-2.35 89.24-1.9 89.47-1.48 89.69-1.05 89.97-0.78 90.24-0.5 90.64-0.5L90.64-0.5 90.64 0 84.14 0 84.14-0.5Q84.49-0.5 84.79-0.78 85.09-1.05 85.32-1.48 85.54-1.9 85.64-2.35 85.74-2.8 85.74-3.2L85.74-3.2 85.74-17.15Q85.74-17.85 85.29-18.55 84.84-19.25 83.99-19.45L83.99-19.45 83.99-19.85 89.04-21.35 89.04-18.35Q89.49-18.9 89.99-19.43 90.49-19.95 91.12-20.38 91.74-20.8 92.49-21.08 93.24-21.35 94.24-21.35L94.24-21.35Q94.94-21.35 96.04-21.05 97.14-20.75 97.84-20.4L97.84-20.4ZM119.04 0L114.19 0 114.19-2.55 113.94-2.3Q112.69-1.05 111.07-0.35 109.44 0.35 107.14 0.35L107.14 0.35Q105.39 0.35 104.14-0.05 102.89-0.45 102.09-1.18 101.29-1.9 100.92-2.85 100.54-3.8 100.54-4.85L100.54-4.85Q100.54-6.55 101.47-7.85 102.39-9.15 104.14-10.15 105.89-11.15 108.42-11.98 110.94-12.8 114.19-13.6L114.19-13.6Q114.09-15.55 113.39-16.75 112.69-17.95 111.74-18.63 110.79-19.3 109.74-19.53 108.69-19.75 107.94-19.75L107.94-19.75Q106.64-19.75 105.67-19.35 104.69-18.95 103.97-18.32 103.24-17.7 102.74-16.98 102.24-16.25 101.94-15.6L101.94-15.6 101.49-15.6 101.49-19.25Q101.89-19.3 102.24-19.5 102.59-19.7 103.09-19.9L103.09-19.9Q103.84-20.2 105.14-20.78 106.44-21.35 108.79-21.35L108.79-21.35Q111.54-21.35 113.24-20.65 114.94-19.95 115.87-18.8 116.79-17.65 117.09-16.18 117.39-14.7 117.39-13.15L117.39-13.15 117.39-3.25Q117.39-2.25 117.84-1.38 118.29-0.5 119.04-0.5L119.04-0.5 119.04 0ZM113.64-4.15L114.19-4.75 114.19-11.9 113.69-11.8Q112.49-11.5 110.77-11 109.04-10.5 107.49-9.7 105.94-8.9 104.84-7.8 103.74-6.7 103.74-5.25L103.74-5.25Q103.74-3.65 105.04-2.6 106.34-1.55 108.44-1.55L108.44-1.55Q110.09-1.55 111.34-2.27 112.59-3 113.64-4.15L113.64-4.15ZM139.14-21L144.04-21 144.04-20.5Q143.69-20.5 143.34-20.25 142.99-20 142.66-19.6 142.34-19.2 142.06-18.73 141.79-18.25 141.59-17.85L141.59-17.85 132.99 0.85 124.44-18.05Q124.09-18.85 123.54-19.68 122.99-20.5 122.14-20.5L122.14-20.5 122.14-21 128.99-21 128.99-20.5Q128.69-20.5 128.21-20.2 127.74-19.9 127.74-19.35L127.74-19.35Q127.74-19.1 128.14-18.2L128.14-18.2 133.89-5.25 140.09-18.75Q140.29-19.25 140.29-19.5L140.29-19.5Q140.29-19.95 139.86-20.23 139.44-20.5 139.14-20.5L139.14-20.5 139.14-21Z" opacity="1" transform="matrix(1,0,0,1,0,0)" fill="#ffffff" class="wordmark-text-0" data-fill-palette-color="primary" id="text-0"></path></svg></g></svg></g></svg></g></svg></g><g></g></svg></g></svg></g></svg></g></svg></g><defs></defs></svg><rect width="395.52" height="247.2" fill="none" stroke="none" visibility="hidden"></rect></g></svg></g></svg>